<svg width="800" height="800" viewBox="0 0 800 800" fill="none" xmlns="http://www.w3.org/2000/svg">
<path d="M400 34.375C192.95 34.375 25.1 202.225 25.1 409.275C25.1 573.9 131.225 713.775 278.8 764.15L281.45 764.925C300.2 768.45 307.075 756.875 307.075 746.9C307.075 738 306.775 714.4 306.6 683.175C202.325 705.8 180.325 632.875 180.325 632.875C173.125 609.75 158.375 590.75 139 578.275L138.6 578.05C104.65 554.8 141.225 555.275 141.225 555.275C165.9 558.75 186.575 573.225 198.45 593.525L198.65 593.9C212.5 618.775 238.65 635.325 268.675 635.325C283.075 635.325 296.575 631.525 308.225 624.85L307.825 625.05C309.625 605.275 318.35 587.825 331.55 574.925L331.575 574.9C248.325 565.525 160.8 533.275 160.8 389.65C160.8 388.975 160.775 388.2 160.775 387.425C160.775 349.4 175.45 314.8 199.45 288.975L199.375 289.075C194.3 275.525 191.35 259.875 191.35 243.55C191.35 224.125 195.5 205.65 202.975 189L202.625 189.85C202.625 189.85 234.025 179.8 305.725 228.275C333.825 220.25 366.1 215.625 399.45 215.625C432.8 215.625 465.075 220.25 495.675 228.875L493.175 228.275C564.4 179.8 595.8 189.85 595.8 189.85C602.925 205.9 607.075 224.6 607.075 244.275C607.075 260.325 604.325 275.725 599.25 290.025L599.55 289.075C623.375 314.875 638 349.475 638 387.5C638 388.275 638 389.025 637.975 389.775V389.65C637.975 533.675 550.35 565.375 466.925 574.6C482.725 590.775 492.475 612.9 492.475 637.325C492.475 639.65 492.375 641.975 492.2 644.275L492.225 643.975C492.225 694.15 491.75 734.45 491.75 746.625C491.75 756.475 498.3 768.175 517.525 764.425C668.225 713.7 774.825 573.7 774.825 408.775C774.825 201.975 607.175 34.35 400.4 34.35C400.25 34.35 400.075 34.35 399.925 34.35H399.95L400 34.375Z" fill="white"/>
</svg>
