<svg width="800" height="800" viewBox="0 0 800 800" fill="none" xmlns="http://www.w3.org/2000/svg">
<rect width="800" height="800" rx="400" fill="white"/>
<g clip-path="url(#clip0_10_30)">
<path d="M254.971 598.031V393.036L191.396 334.875L134.387 302.599V561.855C134.387 581.872 150.605 598.031 170.563 598.031H254.971Z" fill="#4285F4"/>
<path d="M544.372 598.031H628.781C648.799 598.031 664.957 581.811 664.957 561.855V302.601L600.385 339.569L544.372 393.036V598.031Z" fill="#34A853"/>
<path d="M254.971 393.036L246.321 312.939L254.971 236.278L399.672 344.804L544.372 236.278L554.049 308.8L544.372 393.036L399.672 501.563L254.971 393.036Z" fill="#EA4335"/>
<path d="M544.372 236.278V393.036L664.957 302.599V254.365C664.957 209.629 613.889 184.127 578.138 210.956L544.372 236.278Z" fill="#FBBC04"/>
<path d="M134.387 302.599L189.846 344.195L254.971 393.037V236.278L221.206 210.956C185.392 184.125 134.387 209.629 134.387 254.363V302.599Z" fill="#C5221F"/>
</g>
<defs>
<clipPath id="clip0_10_30">
<rect width="530.594" height="400" fill="white" transform="translate(134.375 200)"/>
</clipPath>
</defs>
</svg>
